<svg xmlns="http://www.w3.org/2000/svg" xmlns:xlink="http://www.w3.org/1999/xlink" version="1.1" x="0px" y="0px" viewBox="-255 347 100 100" style="enable-background:new -255 347 100 100;" xml:space="preserve"><style type="text/css">
	.st0{fill-rule:evenodd;clip-rule:evenodd;}
</style><path class="st0" d="M-177.5,416.5l-6,12.7h-1.6l-8.9,9.8l-10.5,3l-10.5-3l-8.9-9.8h-1.6l-6-12.7c-5.5-51,6.2-63.5,6.2-63.5h1.3  l1.2,3.3l1.6,6.9l-0.4-3.6c11.9-3.3,22.4-3.3,34.3,0l-0.4,3.6l1.6-6.9l1.2-3.3h1.3C-183.7,353-172,365.5-177.5,416.5z M-220.4,396  c-1.4-0.8-1.7,0.3-1.7,0.3l-1.2,2.5c-0.4,1.5,1.3,1.8,1.3,1.8l11.9,2.8C-210.3,399.9-220.4,396-220.4,396z M-204.5,418.7l-18.6-8.3  v8l8,10.8l10.6,1.7l10.6-1.7l8-10.8v-8L-204.5,418.7z M-185.8,398.8l-1.2-2.5c0,0-0.3-1.1-1.7-0.3c0,0-10.1,3.9-10.4,7.3l11.9-2.8  C-187.1,400.5-185.3,400.3-185.8,398.8z"></path></svg>